<svg xmlns="http://www.w3.org/2000/svg" width="85.943" height="95.14" viewBox="0 0 85.943 95.14">
  <g id="égalité_salariale" data-name="égalité salariale" transform="translate(0)">
    <g id="Groupe_9" data-name="Groupe 9" transform="translate(0 12.249)">
      <path id="Tracé_44" data-name="Tracé 44" d="M214.135,141.7v38.792h-6.107V141.68a10.789,10.789,0,0,0,3.085.445A10.92,10.92,0,0,0,214.135,141.7Zm0,0" transform="translate(-168.125 -126.752)" fill="#ccd1d9"/>
      <path id="Tracé_45" data-name="Tracé 45" d="M77.637,97.638a1.536,1.536,0,0,1-1.424-.964L63.9,65.965a1.534,1.534,0,0,1,2.848-1.142L79.061,95.532a1.532,1.532,0,0,1-.853,1.995A1.491,1.491,0,0,1,77.637,97.638Zm0,0" transform="translate(-51.55 -63.857)" fill="#ccd1d9"/>
      <path id="Tracé_46" data-name="Tracé 46" d="M1.535,97.645a1.5,1.5,0,0,1-.568-.109,1.534,1.534,0,0,1-.858-1.993L12.344,64.833A1.534,1.534,0,0,1,15.2,65.969L2.961,96.678A1.533,1.533,0,0,1,1.535,97.645Zm0,0" transform="translate(0 -63.864)" fill="#ccd1d9"/>
      <path id="Tracé_47" data-name="Tracé 47" d="M305.585,97.638a1.491,1.491,0,0,1-.571-.111,1.532,1.532,0,0,1-.853-1.995l12.317-30.709a1.534,1.534,0,0,1,2.848,1.142L307.009,96.674A1.536,1.536,0,0,1,305.585,97.638Zm0,0" transform="translate(-245.729 -63.857)" fill="#ccd1d9"/>
      <path id="Tracé_48" data-name="Tracé 48" d="M382.033,97.645a1.535,1.535,0,0,1-1.425-.967L368.373,65.969a1.534,1.534,0,0,1,2.851-1.136l12.235,30.709a1.533,1.533,0,0,1-.858,1.993A1.5,1.5,0,0,1,382.033,97.645Zm0,0" transform="translate(-297.626 -63.864)" fill="#ccd1d9"/>
    </g>
    <path id="Tracé_49" data-name="Tracé 49" d="M182.982,335.992a1.539,1.539,0,0,1,1.535,1.534v6.141a1.539,1.539,0,0,1-1.535,1.535h-21.5a1.539,1.539,0,0,1-1.535-1.535v-6.141a1.539,1.539,0,0,1,1.535-1.534h21.5Zm0,0" transform="translate(-129.269 -271.544)" fill="#3b33fa"/>
    <path id="Tracé_50" data-name="Tracé 50" d="M282.835,455.984a1.539,1.539,0,0,1,1.535,1.534v4.607a1.539,1.539,0,0,1-1.535,1.535h-9.191a1.539,1.539,0,0,1-1.535-1.535v-4.607a1.539,1.539,0,0,1,1.535-1.534Zm0,0" transform="translate(-219.915 -368.52)" fill="#3b33fa"/>
    <path id="Tracé_51" data-name="Tracé 51" d="M122.851,455.984a1.539,1.539,0,0,1,1.535,1.534v4.607a1.539,1.539,0,0,1-1.535,1.535h-9.207a1.539,1.539,0,0,1-1.535-1.535v-4.607a1.539,1.539,0,0,1,1.535-1.534Zm0,0" transform="translate(-90.605 -368.52)" fill="#3b33fa"/>
    <path id="Tracé_52" data-name="Tracé 52" d="M135.352,379.069v12.276a3.088,3.088,0,0,1-3.069,3.069h-49.1a3.088,3.088,0,0,1-3.069-3.069V379.069A3.078,3.078,0,0,1,83.178,376h49.1A3.078,3.078,0,0,1,135.352,379.069Zm0,0" transform="translate(-64.743 -303.878)" fill="#3b33fa"/>
    <path id="Tracé_53" data-name="Tracé 53" d="M277.707,40h20.409a3.054,3.054,0,0,1,.031,6.107H278.168V43.069A10.178,10.178,0,0,0,277.707,40Zm0,0" transform="translate(-224.439 -32.327)" fill="#e6e9ed"/>
    <path id="Tracé_54" data-name="Tracé 54" d="M71.061,43.069v3.038H51.051A3.054,3.054,0,0,1,51.081,40H71.506A10.663,10.663,0,0,0,71.061,43.069Zm0,0" transform="translate(-38.815 -32.327)" fill="#e6e9ed"/>
    <path id="Tracé_55" data-name="Tracé 55" d="M183.454,65.684a10.378,10.378,0,0,1-4.6,1.057,10.555,10.555,0,0,1-4.6-1.044,10.712,10.712,0,0,1-6.138-9.7v6.138a10.7,10.7,0,0,0,6.138,9.7,9.177,9.177,0,0,0,1.519.6,10.79,10.79,0,0,0,3.085.445,10.923,10.923,0,0,0,3.024-.429,10.836,10.836,0,0,0,7.717-10.311V56A10.7,10.7,0,0,1,183.454,65.684Zm0,0" transform="translate(-135.864 -45.258)" fill="#eded4f"/>
    <path id="Tracé_56" data-name="Tracé 56" d="M189.132,7.673a10.177,10.177,0,0,1,.461,3.069,10.7,10.7,0,0,1-6.138,9.684,10.378,10.378,0,0,1-4.6,1.057,10.555,10.555,0,0,1-4.6-1.044A10.736,10.736,0,1,1,189.132,7.673Zm0,0" transform="translate(-135.864)" fill="#ffff5a"/>
    <path id="Tracé_57" data-name="Tracé 57" d="M26.091,223.969H1.538A1.533,1.533,0,0,0,0,225.5a13.811,13.811,0,0,0,27.621,0A1.533,1.533,0,0,0,26.091,223.969Zm0,0" transform="translate(-0.003 -181.008)" fill="#ffff5a"/>
    <path id="Tracé_58" data-name="Tracé 58" d="M330.137,223.969H305.585a1.533,1.533,0,0,0-1.535,1.535,13.811,13.811,0,0,0,27.621,0A1.533,1.533,0,0,0,330.137,223.969Zm0,0" transform="translate(-245.73 -181.008)" fill="#ffff5a"/>
    <path id="Tracé_59" data-name="Tracé 59" d="M192.094,101.824v6.14a10.588,10.588,0,0,0,1.538.908,9.176,9.176,0,0,0,1.519.6l.013,0v-6.161a10.411,10.411,0,0,1-1.532-.579A10.734,10.734,0,0,1,192.094,101.824Zm0,0" transform="translate(-155.247 -82.293)" fill="#d6d64e"/>
    <path id="Tracé_60" data-name="Tracé 60" d="M240.141,103.232v6.16a10.472,10.472,0,0,0,1.529-.594,10.675,10.675,0,0,0,1.54-.916v-6.148a10.575,10.575,0,0,1-1.54.91A10.026,10.026,0,0,1,240.141,103.232Zm0,0" transform="translate(-194.078 -82.22)" fill="#d6d64e"/>
    <path id="Tracé_61" data-name="Tracé 61" d="M217.5,41.223a1.533,1.533,0,0,1-1.535-1.535V33.55a1.535,1.535,0,0,1,3.069,0v6.138A1.533,1.533,0,0,1,217.5,41.223Zm0,0" transform="translate(-174.54 -25.875)" fill="#d6d64e"/>
  </g>
</svg>
