<?xml version="1.0"?>
<svg xmlns="http://www.w3.org/2000/svg" xmlns:xlink="http://www.w3.org/1999/xlink" version="1.1" id="Layer_1" x="0px" y="0px" viewBox="0 0 512 512" style="enable-background:new 0 0 512 512;" xml:space="preserve" width="512px" height="512px" class=""><g><g>
	<path style="fill:#3B33FA" d="M376.494,312.576c-3.662,0-7.09-2.28-8.378-5.93c-7.966-22.568,1.05-48.046,21.436-60.582   l97.517-59.965c3.943-2.424,6.513-6.45,7.053-11.046c0.54-4.596-1.026-9.109-4.299-12.382l-49.649-49.649   c-3.47-3.47-3.47-9.095,0-12.564c3.471-3.47,9.096-3.47,12.566,0l49.649,49.648c7.141,7.142,10.561,16.992,9.381,27.022   c-1.179,10.03-6.789,18.818-15.393,24.108L398.861,261.2c-13.303,8.18-19.186,24.804-13.988,39.531   c1.634,4.627-0.794,9.702-5.421,11.336C378.474,312.413,377.475,312.576,376.494,312.576z" data-original="#4780D1" class="" data-old_color="#04080C"/>
	<rect y="243.593" style="fill:#3B33FA" width="226.21" height="226.21" data-original="#4780D1" class="" data-old_color="#04080C"/>
</g><rect x="32.282" y="275.874" style="fill:#F2F2F2;" width="161.658" height="161.658" data-original="#F2F2F2" class=""/><path style="fill:#4D4D4D" d="M192.287,362.959c-2.273,0-4.548-0.867-6.283-2.603c-3.47-3.47-3.47-9.095,0-12.564l41.637-41.637  c3.471-3.47,9.096-3.47,12.566,0c3.47,3.47,3.47,9.095,0,12.564l-41.637,41.637C196.834,362.09,194.561,362.959,192.287,362.959z" data-original="#4D4D4D" class=""/><polygon style="fill:#5A55F8" points="504.15,98.99 448.904,154.236 392.112,97.456 420.857,68.698 447.358,42.198 " data-original="#4079BF" class="" data-old_color="#5D57F8"/><polygon style="fill:#3B33FA" points="494.004,88.843 467.503,115.344 431.005,78.858 431.005,78.846 457.506,52.345 " data-original="#4780D1" class="" data-old_color="#04080C"/><polygon style="fill:#F9F900" points="489.958,137.799 329.058,298.711 329.046,298.699 247.649,217.302 408.561,56.402   420.857,68.698 420.857,68.71 477.65,125.491 " data-original="#DD3636" class="" data-old_color="#F9F901"/><polygon style="fill:#FFFF5A" points="474.227,122.068 313.327,282.98 313.315,282.968 263.381,233.034 424.293,72.134   436.59,84.431 436.59,84.442 461.919,109.76 " data-original="#F73C3C" class="" data-old_color="#F73C3C"/><path style="fill:#E6E6E6;" d="M329.058,298.711l-15.815,15.803c-20.139,20.127-47.149,30.955-74.752,30.955  c-10.863,0-21.821-1.67-32.483-5.118c-12.202-37.767-2.227-79.182,25.837-107.247l15.803-15.803l81.398,81.398L329.058,298.711z" data-original="#E6E6E6" class=""/><path style="fill:#CCCCCC;" d="M329.058,298.711l-15.815,15.803c-20.139,20.127-65.352,40.355-107.235,25.837  c-12.202-37.767-2.227-79.182,25.837-107.247l15.803-15.803l81.398,81.398L329.058,298.711z" data-original="#CCCCCC" class=""/><path style="fill:#E6E6E6;" d="M329.046,298.699l-16.659-16.659l-15.813,15.806c-20.137,20.13-60.233,45.474-90.567,42.505  c-1.97-27.535,14.443-62.512,42.508-90.576l15.803-15.803L329.046,298.699" data-original="#E6E6E6" class=""/><rect x="230.8" y="249.106" transform="matrix(-0.7071 -0.7071 0.7071 -0.7071 309.8282 644.3167)" style="fill:#3B33FA" width="115.112" height="17.77" data-original="#4780D1" class="" data-old_color="#04080C"/><polygon style="fill:#4D4D4D" points="102.01,426.775 61.087,345.586 76.954,337.588 102.717,388.7 155.801,292.458   171.362,301.04 " data-original="#666666" class="active-path" data-old_color="#3B33FA"/></g> </svg>
