<?xml version="1.0"?>
<svg xmlns="http://www.w3.org/2000/svg" xmlns:xlink="http://www.w3.org/1999/xlink" version="1.1" id="Layer_1" x="0px" y="0px" viewBox="0 0 512 512" style="enable-background:new 0 0 512 512;" xml:space="preserve" width="512px" height="512px" class=""><g><polygon style="fill:#FFFF5A" points="0,87.418 0,366.45 57.651,366.45 451.985,145.274 451.985,87.418 " data-original="#7A7674" class="" data-old_color="#7A7674"/><rect x="56.248" y="143.225" style="fill:#3B33FA" width="455.752" height="281.357" data-original="#A2A9AF" class="" data-old_color="#A2A9AF"/><circle style="fill:#FFE1D6;" cx="184.138" cy="244.641" r="29.066" data-original="#FFE1D6" class=""/><path style="fill:#FFFF5A" d="M195.764,295.262l-11.626,15.548l-11.626-15.548c-26.534,5.387-46.505,28.844-46.505,56.967h116.263  C242.269,324.106,222.298,300.649,195.764,295.262z" data-original="#FFFFFF" class="" data-old_color="#FFFFFF"/><path style="fill:#FFFFFF" d="M184.138,334.064c6.421,0,11.626-5.205,11.626-11.626v-27.175c-3.756-0.763-7.644-1.165-11.626-1.165  c-3.982,0-7.87,0.402-11.626,1.165v27.174C172.511,328.859,177.716,334.064,184.138,334.064z" data-original="#4C5870" class="" data-old_color="#4C5870"/><g>
	<path style="fill:#FFFFFF" d="M442.242,353.661H312.027c-6.421,0-11.626-5.205-11.626-11.626c0-6.421,5.205-11.626,11.626-11.626   h130.215c6.421,0,11.626,5.205,11.626,11.626C453.868,348.456,448.663,353.661,442.242,353.661z" data-original="#3D3D3B" class="active-path" data-old_color="#3D3D3B"/>
	<path style="fill:#FFFFFF" d="M377.135,237.398h-65.107c-6.421,0-11.626-5.205-11.626-11.626c0-6.421,5.205-11.626,11.626-11.626   h65.107c6.421,0,11.626,5.205,11.626,11.626C388.761,232.193,383.556,237.398,377.135,237.398z" data-original="#3D3D3B" class="active-path" data-old_color="#3D3D3B"/>
	<path style="fill:#FFFFFF" d="M442.242,295.529H312.027c-6.421,0-11.626-5.205-11.626-11.626s5.205-11.626,11.626-11.626h130.215   c6.421,0,11.626,5.205,11.626,11.626S448.663,295.529,442.242,295.529z" data-original="#3D3D3B" class="active-path" data-old_color="#3D3D3B"/>
</g></g> </svg>
