<?xml version="1.0"?>
<svg xmlns="http://www.w3.org/2000/svg" height="512px" viewBox="0 -30 511.99948 511" width="512px" class=""><g><path d="m455.59375.539062c-11.574219-.4960932-22.855469 3.707032-31.292969 11.660157l-45.585937 42.980469c-2.828125 2.664062-5.835938 5.703124-6.132813 9.574218-.273437 3.566406 1.847657 6.851563 2.4375 10.378906 1.59375 9.5-8.972656 17.535157-18.570312 16.871094-5.253907-.363281-10.070313-2.476562-14.480469-5.417968-5.175781-3.453126-6.246094-10.683594-2.078125-15.300782 2.691406-2.980468 4.941406-6.355468 6.664063-9.984375 2.636718-5.554687-.277344-12.167969-6.109376-14.105469l-24.121093-8.007812c-11.671875-3.878906-24.019531-7.800781-36.054688-5.277344-17.507812 3.675782-29.367187 19.773438-38.179687 35.367188s-17.101563 32.777344-32.449219 41.984375c-4.867187 2.917969-10.277344 4.90625-14.90625 8.1875-4.332031 3.070312-21.738281 24.433593-18.480469 32.167969 2.035156 4.835937 6.808594 7.894531 12.03125 8.292968 9.148438.703125 16.363282-4.113281 22.90625-9.632812 1.324219-1.125 3.347656-.078125 3.175782 1.652344-1.816407 18.230468-1.773438 45.292968 8.792968 46.460937 11.5625 1.28125 27.753906-32.609375 28.140625-43.121094.390625-10.511719-8.601562-9.855469-8.054687-16.328125s3.480468-12.460937 5.585937-18.605468c4.265625-12.429688 5.636719-26.671876 17.894531-34.332032 5.582032-3.488281 12.90625-3.238281 17.796876 1.167969 5.472656 4.929687 4.4375 11.777344 1.882812 17.355469-3.3125 7.234375-9.039062 13.171875-12.164062 20.488281-3.121094 7.3125-2.550782 17.414063 4.359374 21.332031 7.375 4.179688 16.25-1.097656 23.632813-5.261718 7.386719-4.164063 18.578125-6.371094 22.796875.992187-2.359375 11.90625-4.917969 24.273437-12.273438 33.917969-7.355468 9.644531-21.03125 15.617187-31.933593 10.320312-5.378907.863282-8.304688 6.957032-8.683594 12.402344-.378906 5.441406.839844 11.007812-.40625 16.320312-3.550781 15.105469-22.992187 18.808594-38.472656 19.4375-10.257813.417969-20.515625.835938-30.773438 1.253907-2.074219.085937-4.363281.097656-5.941406-1.25-1.695313-1.449219-1.953125-3.933594-2.011719-6.160157-.214844-8.230468 4.015625-17.964843-1.445312-24.609374-4.453125-4.222657-17.585938-3.128907-19.835938 2.585937-2.253906 5.714844 1.898438 16.753906-2.300781 22.414063-4.199219 5.65625-15.128906 7.980468-22.082031 20.488281-1.925782 3.460937-3.449219 7.28125-6.375 9.941406-2.726563 2.476563-6.355469 3.65625-9.863282 4.765625-16.773437 5.308594-42.789062-6.707031-51.3125 2.515625-7.121093 8.789063-3.167968 21.703125.519532 32.398437 3.691406 10.699219 5.960937 24.570313-2.886719 31.605469-7.992187 6.355469-19.648437 2.699219-29.074219-1.210937l-23.445312-9.730469c-6.074219-2.519531-12.984375.863281-14.722656 7.210937l-8.96875 32.824219c-1.820313 6.660157-3.652344 13.625-2.242188 20.382813 2.511719 12.003906 14.480469 19.691406 26.246094 23.074218 8.128906 2.335938 16.640625 3.300782 24.855468 5.210938 5.921876 1.375 11.933594-2.121094 13.605469-7.964844 1.449219-5.066406 3.265625-9.996094 5.921875-14.53125 4.609375-7.875 12.230469-14.519531 21.277344-15.625 4.476562-.542968 9.859375-.085937 12.558594-3.707031 2.125-2.855469 1.4375-6.992187 3.136718-10.117187 3.101563-5.703126 11.324219-4.796876 17.765626-4.054688 10.882812 1.246094 22.070312-.421875 32.152343-4.695312 4.871094-2.066407 10.585938-.578126 13.679688 3.714843 7.738281 10.75 12.46875 30.140625 19.421875 41.625 6.15625 10.171875 10.722656 12.742188 11.492187 25.4375.160157 2.597657-1.003906 5.109375-3.097656 6.65625-5.566406 4.105469-10.703125 8.972657-17.160156 9.507813-1.667969.136718-2.660157 1.929687-1.84375 3.386718 2.546875 4.550782 10.15625 11.304688 12.769531 12.578126 3.429688 1.671874 7.5 1.15625 11.21875.285156 12.878906-3.015625 17.96875-14.722656 19.503906-17.414063 1.53125-2.6875 9.285156-4.980469 9.285156-4.980469 1.332032 1.011719 3.277344.792969 4.25-.570312 1.890626-2.644531 1.894532-6.789062.261719-9.808594-2.148437-3.976562-6.175781-6.496094-9.90625-9.046875-12.710937-8.703125-14.285156-33.421875-23.042969-46.109375-2.03125-2.941406-3.804687-6.652344-4.570312-10.257812-1.261719-5.933594 5.113281-10.546875 10.347656-7.476563l41.886719 24.574219c2.390625 1.402344 4.871094 2.890625 6.375 5.222656 3.910156 6.074219-.535156 14.359375 1.5625 21.273438 1.617187 5.335937 6.695313 8.675781 10.832031 12.40625 4.136719 3.726562 1.648438 11.71875 5.4375 14.597656 2.519532 1.035156 5.453125.933594 7.945313-.15625 1.929687-.84375 4-1.289062 6.109375-1.3125 5.015625-.058594 10.316406-1.878906 9.273437-6.628906-.210937-.957032-.691406-1.835938-1.292969-2.609375l-8.25-16.746094c-1.339843-4.992187 3.945313-5.816406 6.902344-5.945313 2.957032-.128906 10.179688-.027343 14.03125-.027343 3.851563 0 22.683594-17.050781 24.023438-24.59375 1.601562-9.003907 3.207031-18.007813 4.808594-27.011719.730468-4.121094 1.605468-8.515625 4.566406-11.46875 2.957031-2.953125 6.375 2.292969 10.835937.277344 5.769531-2.609375 2.277344-9.742188 10.339844-9.925782 3.097656-.070312 6.007813 1.464844 7.773437 4.015626.742188 1.070312 1.625 1.917968 3.175782 1.792968.734375-.058594 1.429687-.367187 2.015625-.808594 6.019531-4.5625 10.488281-10.8125 16.125-15.816406 5.324219-4.726562 16.210937-10.820312 19.332031-7.160156s7.933594 18.722656-16.503906 32.546875c-5.242188 2.964844-5.363282 7.308594-2.617188 12.996094 1.207032 2.503906 3.867188 3.953125 6.644532 3.996093 6.488281.097657 15.820312-9.046874 26.773437-.09375.816406.671876 6.449219 16.320313-5.359375 19.65625-16.140625 4.5625-22.804688 3.90625-42.035156 6.402344-8.828125 1.144532-18.421875 2.667969-24.464844 9.214844-4.296875 4.65625-6.269531 11.378906-11.429688 15.050781-2.789062 1.984375-6.289062 2.882813-8.867187 5.140625-4.023437 3.519532-4.855469 9.664063-3.429687 14.820313 1.425781 5.15625 4.699218 9.566406 7.90625 13.84375 2.027343 2.699219 4.164062 5.5 7.191406 6.984375 2.457031 1.207031 5.28125 1.433594 8.015625 1.320312 16.140625-.667968 31.789062-12.226562 47.257812-7.558594 3.269531.984376 6.410157 2.6875 9.820313 2.71875 4.625.035157 8.636718-2.976562 12.425781-5.636718 15.402344-10.8125 33.382813-17.917969 52.007813-20.554688 4.019531-.566406 8.691406-1.328125 10.648437-4.890625.90625-1.648437 1.019531-3.601562 1.113281-5.476562.496094-9.753907.324219-21.082031-7.285156-27.191407-3.152344-2.527343-7.136719-3.714843-10.800781-5.417968-11.070313-5.140625-13.460938-22.703125-9.515625-29.332032 2.847656-4.773437 27.574218 7.902344 41.175781 15.359376 3.996094 2.191406 8.875-.703126 8.875-5.261719l.015625-341.074219c0-3.324219-2.703125-6.015625-6.027344-5.996094-13.453125.078125-45.152344.226563-50.378906.003906zm0 0" fill="#40c4ff" data-original="#40C4FF" class="" style="fill:#3B33FA" data-old_color="#40C4FF"/><g fill="#00b0ff"><path d="m459.226562.613281c-1.648437-.019531-2.898437-.042969-3.632812-.074219-1.726562-.074218-3.449219-.03125-5.160156.101563 2.941406-.007813 5.914062-.015625 8.792968-.027344zm0 0" data-original="#000000" class="active-path" style="fill:#FFFF5A" data-old_color="#000000"/><path d="m482.253906 372.261719c-3.152344-2.53125-7.136718-3.714844-10.800781-5.417969-7.511719-3.488281-9.261719-21.703125-9.515625-29.332031-12.761719-6.441407-12.882812 2.199219-15 5.753906-1.742188 2.925781-2.308594 7.324219-.929688 12.839844 1.859376 7.441406 2.1875 13.625 5.339844 16.15625 7.609375 6.105469 7.777344 17.433593 7.285156 27.1875-.09375 1.878906-.210937 3.828125-1.113281 5.476562-1.957031 3.566407-6.628906 4.324219-10.648437 4.894531-18.625 2.636719-36.605469 9.742188-52.007813 20.554688-.957031.671875-1.929687 1.367188-2.921875 2.027344 3.875-.425782 7.734375-.269532 11.582032.890625 3.265624.984375 6.40625 2.6875 9.816406 2.714843 4.628906.039063 8.640625-2.972656 12.429687-5.632812 15.402344-10.8125 33.382813-17.917969 52.003907-20.554688 4.023437-.566406 8.691406-1.328124 10.648437-4.890624.90625-1.648438 1.023437-3.601563 1.117187-5.480469.492188-9.753907.324219-21.082031-7.285156-27.1875zm0 0" data-original="#000000" class="active-path" style="fill:#FFFF5A" data-old_color="#000000"/><path d="m481.09375.640625-.011719 341.09375c7.589844 3.398437 15.921875 7.785156 22.015625 11.128906 4 2.195313 8.890625-.695312 8.890625-5.253906l.011719-341.078125c0-3.324219-2.703125-6.015625-6.03125-5.996094-5.988281.035156-15.597656.082032-24.875.105469zm0 0" data-original="#000000" class="active-path" style="fill:#FFFF5A" data-old_color="#000000"/></g></g> </svg>
