<svg xmlns="http://www.w3.org/2000/svg" width="40.26" height="48.213" viewBox="0 0 40.26 48.213">
  <g id="Prquivoter" transform="matrix(0.966, 0.259, -0.259, 0.966, 10.915, -2.234)">
    <path id="Tracé_35" data-name="Tracé 35" d="M36.069,339.305H1.456a1.456,1.456,0,0,1-1.412-1.813l1.607-6.341a6,6,0,0,1,3.738-4.156l8.467-3.127a.806.806,0,0,1,.687.061l4.219,2.476,4.178-2.487a.806.806,0,0,1,.692-.064l8.5,3.141a6,6,0,0,1,3.738,4.156l1.607,6.341A1.456,1.456,0,0,1,36.069,339.305Zm0,0" transform="translate(0 -297.133)" fill="#3b33fa"/>
    <path id="Tracé_36" data-name="Tracé 36" d="M139.277,326.56l2.4-1.427-1.787-1.049a.806.806,0,0,0-.687-.061l-2.606.962Zm0,0" transform="translate(-125.343 -297.289)" fill="#4a42f9"/>
    <path id="Tracé_37" data-name="Tracé 37" d="M276.144,337.492l-1.607-6.341a6,6,0,0,0-3.738-4.156l-8.5-3.141a.806.806,0,0,0-.692.063l-1.518.9,5.884,2.174a6,6,0,0,1,3.738,4.156l1.607,6.341a1.456,1.456,0,0,1-1.412,1.813h4.829A1.456,1.456,0,0,0,276.144,337.492Zm0,0" transform="translate(-238.663 -297.133)" fill="#4a42f9"/>
    <g id="Groupe_8" data-name="Groupe 8" transform="translate(11.029 26.67)">
      <path id="Tracé_38" data-name="Tracé 38" d="M136.73,324.02l-2.827,1.044,3.919,3.9a.757.757,0,0,0,1.033.033l2.782-2.437-4.219-2.476A.805.805,0,0,0,136.73,324.02Zm0,0" transform="translate(-133.902 -323.956)" fill="#665dfc"/>
      <path id="Tracé_39" data-name="Tracé 39" d="M232.663,323.855l2.864,1.058-4.04,3.9a.757.757,0,0,1-1.036.015l-2.657-2.424,4.178-2.487A.806.806,0,0,1,232.663,323.855Zm0,0" transform="translate(-220.059 -323.805)" fill="#665dfc"/>
      <path id="Tracé_40" data-name="Tracé 40" d="M220.38,394.918a.666.666,0,0,1-.665-.666v-7.095a.665.665,0,0,1,1.331,0v7.095A.666.666,0,0,1,220.38,394.918Zm0,0" transform="translate(-212.646 -381.329)" fill="#665dfc"/>
    </g>
    <path id="Tracé_41" data-name="Tracé 41" d="M115.013,25.322A3.2,3.2,0,0,1,111.8,22.11V18.171a4.406,4.406,0,0,1,3.746-4.366,3.777,3.777,0,1,0-3.235-6.432,3.748,3.748,0,0,0-1.138,2.7,3.149,3.149,0,0,1-3.135,3.15,3.2,3.2,0,0,1-3.164-3.273,10.075,10.075,0,1,1,13.656,9.543.662.662,0,0,0-.431.617v2.061A3.149,3.149,0,0,1,115.013,25.322Zm0,0" transform="translate(-96.238 0)" fill="#f9f90e"/>
    <path id="Tracé_42" data-name="Tracé 42" d="M123.121,71.851a3.775,3.775,0,0,1,3.386-3.755,3.766,3.766,0,0,0-6.048,3,3.15,3.15,0,0,1-2.565,3.095,3.079,3.079,0,0,0,2.092.809A3.149,3.149,0,0,0,123.121,71.851Zm0,0" transform="translate(-108.184 -61.776)" fill="#ffff5a"/>
    <path id="Tracé_43" data-name="Tracé 43" d="M214.123,10.9a10.106,10.106,0,0,0-8.69-9.74,10.076,10.076,0,0,1,.9,18.009,3.518,3.518,0,0,0-1.791,3.065v.25a3.15,3.15,0,0,1-2.566,3.095,3.1,3.1,0,0,0,2.139.809,3.15,3.15,0,0,0,3.088-3.149v-2.06a.662.662,0,0,1,.431-.618,10.08,10.08,0,0,0,6.493-9.661Zm0,0" transform="translate(-185.337 -1.062)" fill="#ffff5a"/>
  </g>
</svg>
